# MagicaVoxel @ Ephtracy

# group
g charactor1

# material
mtllib charactor1.mtl
usemtl palette

# normals
vn -1 0 0
vn 1 0 0
vn 0 0 1
vn 0 0 -1
vn 0 -1 0
vn 0 1 0

# texcoords
vt 0.0292969 0.5
vt 0.0449219 0.5
vt 0.158203 0.5
vt 0.248047 0.5
vt 0.626953 0.5
vt 0.939453 0.5
vt 0.958984 0.5
vt 0.994141 0.5

# verts
v -2.5 4 2
v -2.5 4 -2
v -2.5 5 2
v -2.5 5 -2
v -2.5 7 3
v -2.5 7 2
v -2.5 7 1
v -2.5 7 -1
v -2.5 7 -2
v -2.5 7 -3
v -2.5 8 3
v -2.5 8 2
v -2.5 8 1
v -2.5 8 -1
v -2.5 8 -2
v -2.5 8 -3
v -2.5 9 2
v -2.5 9 -2
v -1.5 0 2
v -1.5 0 1
v -1.5 0 -1
v -1.5 0 -2
v -1.5 1 2
v -1.5 1 1
v -1.5 1 -1
v -1.5 1 -2
v -1.5 2 2
v -1.5 2 -2
v -1.5 4 3
v -1.5 4 2
v -1.5 4 -2
v -1.5 4 -3
v -1.5 5 3
v -1.5 5 2
v -1.5 5 1
v -1.5 5 -1
v -1.5 5 -2
v -1.5 5 -3
v -1.5 6 3
v -1.5 6 2
v -1.5 6 1
v -1.5 6 -1
v -1.5 6 -2
v -1.5 6 -3
v -1.5 7 3
v -1.5 7 2
v -1.5 7 1
v -1.5 7 -1
v -1.5 7 -2
v -1.5 7 -3
v -1.5 8 3
v -1.5 8 2
v -1.5 8 1
v -1.5 8 -1
v -1.5 8 -2
v -1.5 8 -3
v -1.5 9 3
v -1.5 9 2
v -1.5 9 -2
v -1.5 9 -3
v -1.5 10 2
v -1.5 10 -2
v -0.5 1 2
v -0.5 1 1
v -0.5 1 -1
v -0.5 1 -2
v -0.5 2 3
v -0.5 2 2
v -0.5 2 1
v -0.5 2 -1
v -0.5 2 -2
v -0.5 2 -3
v -0.5 3 3
v -0.5 3 2
v -0.5 3 -2
v -0.5 3 -3
v -0.5 4 3
v -0.5 4 2
v -0.5 4 -2
v -0.5 4 -3
v -0.5 5 3
v -0.5 5 2
v -0.5 5 -2
v -0.5 5 -3
v -0.5 6 3
v -0.5 6 2
v -0.5 6 -2
v -0.5 6 -3
v 0.5 0 2
v 0.5 0 1
v 0.5 0 -1
v 0.5 0 -2
v 0.5 1 2
v 0.5 1 1
v 0.5 1 -1
v 0.5 1 -2
v 0.5 2 3
v 0.5 2 2
v 0.5 2 1
v 0.5 2 -1
v 0.5 2 -2
v 0.5 2 -3
v 0.5 3 3
v 0.5 3 2
v 0.5 3 -2
v 0.5 3 -3
v 0.5 4 3
v 0.5 4 2
v 0.5 4 -2
v 0.5 4 -3
v 0.5 5 3
v 0.5 5 2
v 0.5 5 -2
v 0.5 5 -3
v 0.5 6 3
v 0.5 6 2
v 0.5 6 -2
v 0.5 6 -3
v 1.5 2 2
v 1.5 2 -2
v 1.5 3 2
v 1.5 3 1
v 1.5 3 -1
v 1.5 3 -2
v 1.5 4 3
v 1.5 4 2
v 1.5 4 1
v 1.5 4 -1
v 1.5 4 -2
v 1.5 4 -3
v 1.5 5 3
v 1.5 5 2
v 1.5 5 -2
v 1.5 5 -3
v 1.5 6 3
v 1.5 6 2
v 1.5 6 -2
v 1.5 6 -3
v 1.5 7 3
v 1.5 7 2
v 1.5 7 -2
v 1.5 7 -3
v 1.5 8 3
v 1.5 8 2
v 1.5 8 -2
v 1.5 8 -3
v 1.5 9 3
v 1.5 9 2
v 1.5 9 -2
v 1.5 9 -3
v 1.5 10 2
v 1.5 10 -2
v 2.5 3 2
v 2.5 3 1
v 2.5 3 -1
v 2.5 3 -2
v 2.5 4 1
v 2.5 4 -1
v 2.5 5 2
v 2.5 5 -2
v 2.5 6 2
v 2.5 6 -2
v 2.5 7 3
v 2.5 7 2
v 2.5 7 -2
v 2.5 7 -3
v 2.5 8 3
v 2.5 8 2
v 2.5 8 -2
v 2.5 8 -3
v 2.5 9 2
v 2.5 9 -2
v -2.5 7 3
v -2.5 8 3
v -1.5 4 3
v -1.5 5 3
v -1.5 6 3
v -1.5 7 3
v -1.5 8 3
v -1.5 9 3
v -0.5 2 3
v -0.5 3 3
v -0.5 4 3
v -0.5 5 3
v -0.5 6 3
v 0.5 2 3
v 0.5 3 3
v 0.5 4 3
v 0.5 5 3
v 0.5 6 3
v 1.5 4 3
v 1.5 5 3
v 1.5 6 3
v 1.5 7 3
v 1.5 8 3
v 1.5 9 3
v 2.5 7 3
v 2.5 8 3
v -2.5 4 2
v -2.5 5 2
v -2.5 8 2
v -2.5 9 2
v -1.5 0 2
v -1.5 1 2
v -1.5 2 2
v -1.5 4 2
v -1.5 5 2
v -1.5 6 2
v -1.5 8 2
v -1.5 9 2
v -1.5 10 2
v -0.5 1 2
v -0.5 2 2
v -0.5 3 2
v -0.5 4 2
v -0.5 5 2
v -0.5 6 2
v 0.5 0 2
v 0.5 1 2
v 0.5 2 2
v 0.5 3 2
v 0.5 4 2
v 0.5 5 2
v 0.5 6 2
v 1.5 2 2
v 1.5 3 2
v 1.5 4 2
v 1.5 5 2
v 1.5 6 2
v 1.5 7 2
v 1.5 8 2
v 1.5 9 2
v 1.5 10 2
v 2.5 3 2
v 2.5 5 2
v 2.5 6 2
v 2.5 7 2
v 2.5 8 2
v 2.5 9 2
v -2.5 7 1
v -2.5 8 1
v -1.5 7 1
v -1.5 8 1
v -1.5 0 -1
v -1.5 1 -1
v -0.5 1 -1
v -0.5 2 -1
v 0.5 0 -1
v 0.5 1 -1
v 0.5 2 -1
v 1.5 3 -1
v 1.5 4 -1
v 2.5 3 -1
v 2.5 4 -1
v -2.5 7 -2
v -2.5 8 -2
v -1.5 7 -2
v -1.5 8 -2
v -2.5 7 2
v -2.5 8 2
v -1.5 7 2
v -1.5 8 2
v -1.5 0 1
v -1.5 1 1
v -0.5 1 1
v -0.5 2 1
v 0.5 0 1
v 0.5 1 1
v 0.5 2 1
v 1.5 3 1
v 1.5 4 1
v 2.5 3 1
v 2.5 4 1
v -2.5 7 -1
v -2.5 8 -1
v -1.5 7 -1
v -1.5 8 -1
v -2.5 4 -2
v -2.5 5 -2
v -2.5 8 -2
v -2.5 9 -2
v -1.5 0 -2
v -1.5 1 -2
v -1.5 2 -2
v -1.5 4 -2
v -1.5 5 -2
v -1.5 6 -2
v -1.5 8 -2
v -1.5 9 -2
v -1.5 10 -2
v -0.5 1 -2
v -0.5 2 -2
v -0.5 3 -2
v -0.5 4 -2
v -0.5 5 -2
v -0.5 6 -2
v 0.5 0 -2
v 0.5 1 -2
v 0.5 2 -2
v 0.5 3 -2
v 0.5 4 -2
v 0.5 5 -2
v 0.5 6 -2
v 1.5 2 -2
v 1.5 3 -2
v 1.5 4 -2
v 1.5 5 -2
v 1.5 6 -2
v 1.5 7 -2
v 1.5 8 -2
v 1.5 9 -2
v 1.5 10 -2
v 2.5 3 -2
v 2.5 5 -2
v 2.5 6 -2
v 2.5 7 -2
v 2.5 8 -2
v 2.5 9 -2
v -2.5 7 -3
v -2.5 8 -3
v -1.5 4 -3
v -1.5 5 -3
v -1.5 6 -3
v -1.5 7 -3
v -1.5 8 -3
v -1.5 9 -3
v -0.5 2 -3
v -0.5 3 -3
v -0.5 4 -3
v -0.5 5 -3
v -0.5 6 -3
v 0.5 2 -3
v 0.5 3 -3
v 0.5 4 -3
v 0.5 5 -3
v 0.5 6 -3
v 1.5 4 -3
v 1.5 5 -3
v 1.5 6 -3
v 1.5 7 -3
v 1.5 8 -3
v 1.5 9 -3
v 2.5 7 -3
v 2.5 8 -3
v -1.5 0 2
v 0.5 0 2
v -1.5 0 1
v 0.5 0 1
v -1.5 0 -1
v 0.5 0 -1
v -1.5 0 -2
v 0.5 0 -2
v -0.5 2 3
v 0.5 2 3
v -1.5 2 2
v -0.5 2 2
v 0.5 2 2
v 1.5 2 2
v -0.5 2 1
v 0.5 2 1
v -0.5 2 -1
v 0.5 2 -1
v -1.5 2 -2
v -0.5 2 -2
v 0.5 2 -2
v 1.5 2 -2
v -0.5 2 -3
v 0.5 2 -3
v 1.5 3 2
v 2.5 3 2
v 1.5 3 1
v 2.5 3 1
v 1.5 3 -1
v 2.5 3 -1
v 1.5 3 -2
v 2.5 3 -2
v -1.5 4 3
v -0.5 4 3
v 0.5 4 3
v 1.5 4 3
v -2.5 4 2
v -1.5 4 2
v -0.5 4 2
v 0.5 4 2
v 1.5 4 2
v 1.5 4 1
v 2.5 4 1
v 1.5 4 -1
v 2.5 4 -1
v -2.5 4 -2
v -1.5 4 -2
v -0.5 4 -2
v 0.5 4 -2
v 1.5 4 -2
v -1.5 4 -3
v -0.5 4 -3
v 0.5 4 -3
v 1.5 4 -3
v -1.5 6 3
v -0.5 6 3
v 0.5 6 3
v 1.5 6 3
v -1.5 6 2
v -0.5 6 2
v 0.5 6 2
v 1.5 6 2
v 2.5 6 2
v -1.5 6 -2
v -0.5 6 -2
v 0.5 6 -2
v 1.5 6 -2
v 2.5 6 -2
v -1.5 6 -3
v -0.5 6 -3
v 0.5 6 -3
v 1.5 6 -3
v -2.5 7 3
v -1.5 7 3
v 1.5 7 3
v 2.5 7 3
v -2.5 7 2
v -1.5 7 2
v 1.5 7 2
v 2.5 7 2
v -2.5 7 1
v -1.5 7 1
v -2.5 7 -1
v -1.5 7 -1
v -2.5 7 -2
v -1.5 7 -2
v 1.5 7 -2
v 2.5 7 -2
v -2.5 7 -3
v -1.5 7 -3
v 1.5 7 -3
v 2.5 7 -3
v -2.5 8 2
v -1.5 8 2
v -2.5 8 1
v -1.5 8 1
v -2.5 8 -1
v -1.5 8 -1
v -2.5 8 -2
v -1.5 8 -2
v -1.5 1 2
v -0.5 1 2
v -1.5 1 1
v -0.5 1 1
v -1.5 1 -1
v -0.5 1 -1
v -1.5 1 -2
v -0.5 1 -2
v -1.5 5 3
v -0.5 5 3
v 0.5 5 3
v 1.5 5 3
v -2.5 5 2
v -1.5 5 2
v -0.5 5 2
v 0.5 5 2
v 1.5 5 2
v 2.5 5 2
v -1.5 5 1
v -1.5 5 -1
v -2.5 5 -2
v -1.5 5 -2
v -0.5 5 -2
v 0.5 5 -2
v 1.5 5 -2
v 2.5 5 -2
v -1.5 5 -3
v -0.5 5 -3
v 0.5 5 -3
v 1.5 5 -3
v -2.5 8 3
v -1.5 8 3
v 1.5 8 3
v 2.5 8 3
v -2.5 8 2
v -1.5 8 2
v 1.5 8 2
v 2.5 8 2
v -2.5 8 -2
v -1.5 8 -2
v 1.5 8 -2
v 2.5 8 -2
v -2.5 8 -3
v -1.5 8 -3
v 1.5 8 -3
v 2.5 8 -3
v -1.5 9 3
v 1.5 9 3
v -2.5 9 2
v -1.5 9 2
v 1.5 9 2
v 2.5 9 2
v -2.5 9 -2
v -1.5 9 -2
v 1.5 9 -2
v 2.5 9 -2
v -1.5 9 -3
v 1.5 9 -3
v -1.5 10 2
v 1.5 10 2
v -1.5 10 -2
v 1.5 10 -2

# faces
f 3/5/1 2/5/1 1/5/1
f 4/5/1 2/5/1 3/5/1
f 11/3/1 6/3/1 5/3/1
f 12/3/1 6/3/1 11/3/1
f 13/3/1 8/3/1 7/3/1
f 14/3/1 8/3/1 13/3/1
f 15/3/1 10/3/1 9/3/1
f 16/3/1 10/3/1 15/3/1
f 17/3/1 14/3/1 13/3/1
f 17/3/1 15/3/1 14/3/1
f 17/3/1 13/3/1 12/3/1
f 18/3/1 15/3/1 17/3/1
f 23/8/1 20/8/1 19/8/1
f 24/8/1 20/8/1 23/8/1
f 25/8/1 22/8/1 21/8/1
f 26/8/1 22/8/1 25/8/1
f 30/7/1 28/7/1 27/7/1
f 31/7/1 28/7/1 30/7/1
f 33/5/1 30/5/1 29/5/1
f 34/5/1 30/5/1 33/5/1
f 37/5/1 32/5/1 31/5/1
f 38/5/1 32/5/1 37/5/1
f 40/4/1 35/4/1 34/4/1
f 41/2/1 36/2/1 35/2/1
f 41/4/1 35/4/1 40/4/1
f 42/4/1 37/4/1 36/4/1
f 42/2/1 36/2/1 41/2/1
f 43/4/1 37/4/1 42/4/1
f 45/3/1 40/3/1 39/3/1
f 46/8/1 41/8/1 40/8/1
f 46/3/1 40/3/1 45/3/1
f 47/4/1 42/4/1 41/4/1
f 47/8/1 41/8/1 46/8/1
f 48/8/1 43/8/1 42/8/1
f 48/4/1 42/4/1 47/4/1
f 49/3/1 44/3/1 43/3/1
f 49/8/1 43/8/1 48/8/1
f 50/3/1 44/3/1 49/3/1
f 52/8/1 47/8/1 46/8/1
f 53/8/1 47/8/1 52/8/1
f 54/8/1 49/8/1 48/8/1
f 55/8/1 49/8/1 54/8/1
f 57/3/1 52/3/1 51/3/1
f 58/3/1 52/3/1 57/3/1
f 59/3/1 56/3/1 55/3/1
f 60/3/1 56/3/1 59/3/1
f 61/3/1 59/3/1 58/3/1
f 62/3/1 59/3/1 61/3/1
f 68/6/1 64/6/1 63/6/1
f 69/6/1 64/6/1 68/6/1
f 70/6/1 66/6/1 65/6/1
f 71/6/1 66/6/1 70/6/1
f 73/4/1 68/4/1 67/4/1
f 74/4/1 68/4/1 73/4/1
f 75/4/1 72/4/1 71/4/1
f 76/4/1 72/4/1 75/4/1
f 77/7/1 74/7/1 73/7/1
f 78/7/1 74/7/1 77/7/1
f 79/7/1 76/7/1 75/7/1
f 80/7/1 76/7/1 79/7/1
f 85/5/1 82/5/1 81/5/1
f 86/5/1 82/5/1 85/5/1
f 87/5/1 84/5/1 83/5/1
f 88/5/1 84/5/1 87/5/1
f 89/8/2 90/8/2 93/8/2
f 93/8/2 90/8/2 94/8/2
f 91/8/2 92/8/2 95/8/2
f 95/8/2 92/8/2 96/8/2
f 93/6/2 94/6/2 98/6/2
f 98/6/2 94/6/2 99/6/2
f 95/6/2 96/6/2 100/6/2
f 100/6/2 96/6/2 101/6/2
f 97/4/2 98/4/2 103/4/2
f 103/4/2 98/4/2 104/4/2
f 101/4/2 102/4/2 105/4/2
f 105/4/2 102/4/2 106/4/2
f 103/7/2 104/7/2 107/7/2
f 107/7/2 104/7/2 108/7/2
f 105/7/2 106/7/2 109/7/2
f 109/7/2 106/7/2 110/7/2
f 111/5/2 112/5/2 115/5/2
f 115/5/2 112/5/2 116/5/2
f 113/5/2 114/5/2 117/5/2
f 117/5/2 114/5/2 118/5/2
f 119/7/2 120/7/2 121/7/2
f 121/7/2 120/7/2 122/7/2
f 122/7/2 120/7/2 123/7/2
f 123/7/2 120/7/2 124/7/2
f 122/7/2 123/7/2 127/7/2
f 127/7/2 123/7/2 128/7/2
f 125/5/2 126/5/2 131/5/2
f 131/5/2 126/5/2 132/5/2
f 129/5/2 130/5/2 133/5/2
f 133/5/2 130/5/2 134/5/2
f 132/3/2 133/3/2 136/3/2
f 136/3/2 133/3/2 137/3/2
f 135/3/2 136/3/2 139/3/2
f 139/3/2 136/3/2 140/3/2
f 137/3/2 138/3/2 141/3/2
f 141/3/2 138/3/2 142/3/2
f 143/3/2 144/3/2 147/3/2
f 147/3/2 144/3/2 148/3/2
f 145/3/2 146/3/2 149/3/2
f 149/3/2 146/3/2 150/3/2
f 148/3/2 149/3/2 151/3/2
f 151/3/2 149/3/2 152/3/2
f 153/5/2 154/5/2 157/5/2
f 155/5/2 156/5/2 158/5/2
f 153/5/2 157/5/2 159/5/2
f 157/5/2 158/5/2 159/5/2
f 158/5/2 156/5/2 160/5/2
f 159/5/2 158/5/2 160/5/2
f 161/3/2 162/3/2 164/3/2
f 164/3/2 162/3/2 165/3/2
f 164/3/2 165/3/2 167/3/2
f 165/3/2 166/3/2 167/3/2
f 163/3/2 164/3/2 167/3/2
f 167/3/2 166/3/2 168/3/2
f 168/3/2 166/3/2 169/3/2
f 169/3/2 166/3/2 170/3/2
f 168/3/2 169/3/2 171/3/2
f 171/3/2 169/3/2 172/3/2
f 178/3/3 174/3/3 173/3/3
f 179/3/3 174/3/3 178/3/3
f 183/5/3 176/5/3 175/5/3
f 184/5/3 176/5/3 183/5/3
f 185/3/3 178/3/3 177/3/3
f 185/3/3 179/3/3 178/3/3
f 185/3/3 180/3/3 179/3/3
f 186/4/3 182/4/3 181/4/3
f 187/7/3 184/7/3 183/7/3
f 187/4/3 182/4/3 186/4/3
f 187/7/3 183/7/3 182/7/3
f 188/7/3 184/7/3 187/7/3
f 189/5/3 185/5/3 184/5/3
f 189/7/3 184/7/3 188/7/3
f 190/3/3 180/3/3 185/3/3
f 190/5/3 185/5/3 189/5/3
f 191/5/3 189/5/3 188/5/3
f 192/5/3 189/5/3 191/5/3
f 193/3/3 180/3/3 190/3/3
f 194/3/3 180/3/3 193/3/3
f 195/3/3 180/3/3 194/3/3
f 196/3/3 180/3/3 195/3/3
f 197/3/3 195/3/3 194/3/3
f 198/3/3 195/3/3 197/3/3
f 206/5/3 200/5/3 199/5/3
f 207/5/3 200/5/3 206/5/3
f 209/3/3 202/3/3 201/3/3
f 210/3/3 202/3/3 209/3/3
f 212/8/3 204/8/3 203/8/3
f 213/7/3 206/7/3 205/7/3
f 214/7/3 206/7/3 213/7/3
f 215/7/3 206/7/3 214/7/3
f 216/4/3 208/4/3 207/4/3
f 217/4/3 208/4/3 216/4/3
f 218/8/3 212/8/3 203/8/3
f 219/6/3 213/6/3 212/6/3
f 219/8/3 212/8/3 218/8/3
f 220/6/3 213/6/3 219/6/3
f 225/7/3 222/7/3 221/7/3
f 225/7/3 221/7/3 220/7/3
f 226/7/3 222/7/3 225/7/3
f 227/7/3 222/7/3 226/7/3
f 228/3/3 224/3/3 223/3/3
f 229/3/3 224/3/3 228/3/3
f 232/3/3 211/3/3 210/3/3
f 233/3/3 211/3/3 232/3/3
f 234/5/3 227/5/3 226/5/3
f 234/5/3 228/5/3 227/5/3
f 235/5/3 228/5/3 234/5/3
f 236/3/3 230/3/3 229/3/3
f 237/3/3 230/3/3 236/3/3
f 238/3/3 232/3/3 231/3/3
f 239/3/3 232/3/3 238/3/3
f 242/3/3 241/3/3 240/3/3
f 243/3/3 241/3/3 242/3/3
f 246/8/3 245/8/3 244/8/3
f 248/8/3 246/8/3 244/8/3
f 249/6/3 247/6/3 246/6/3
f 249/8/3 246/8/3 248/8/3
f 250/6/3 247/6/3 249/6/3
f 253/5/3 252/5/3 251/5/3
f 254/5/3 252/5/3 253/5/3
f 257/3/3 256/3/3 255/3/3
f 258/3/3 256/3/3 257/3/3
f 259/3/4 260/3/4 261/3/4
f 261/3/4 260/3/4 262/3/4
f 263/8/4 264/8/4 265/8/4
f 263/8/4 265/8/4 267/8/4
f 265/6/4 266/6/4 268/6/4
f 267/8/4 265/8/4 268/8/4
f 268/6/4 266/6/4 269/6/4
f 270/5/4 271/5/4 272/5/4
f 272/5/4 271/5/4 273/5/4
f 274/3/4 275/3/4 276/3/4
f 276/3/4 275/3/4 277/3/4
f 278/5/4 279/5/4 285/5/4
f 285/5/4 279/5/4 286/5/4
f 280/3/4 281/3/4 288/3/4
f 288/3/4 281/3/4 289/3/4
f 282/8/4 283/8/4 291/8/4
f 284/7/4 285/7/4 292/7/4
f 292/7/4 285/7/4 293/7/4
f 293/7/4 285/7/4 294/7/4
f 286/4/4 287/4/4 295/4/4
f 295/4/4 287/4/4 296/4/4
f 282/8/4 291/8/4 297/8/4
f 291/6/4 292/6/4 298/6/4
f 297/8/4 291/8/4 298/8/4
f 298/6/4 292/6/4 299/6/4
f 300/7/4 301/7/4 304/7/4
f 299/7/4 300/7/4 304/7/4
f 304/7/4 301/7/4 305/7/4
f 305/7/4 301/7/4 306/7/4
f 302/3/4 303/3/4 307/3/4
f 307/3/4 303/3/4 308/3/4
f 289/3/4 290/3/4 311/3/4
f 311/3/4 290/3/4 312/3/4
f 305/5/4 306/5/4 313/5/4
f 306/5/4 307/5/4 313/5/4
f 313/5/4 307/5/4 314/5/4
f 308/3/4 309/3/4 315/3/4
f 315/3/4 309/3/4 316/3/4
f 310/3/4 311/3/4 317/3/4
f 317/3/4 311/3/4 318/3/4
f 319/3/4 320/3/4 324/3/4
f 324/3/4 320/3/4 325/3/4
f 321/5/4 322/5/4 329/5/4
f 329/5/4 322/5/4 330/5/4
f 323/3/4 324/3/4 331/3/4
f 324/3/4 325/3/4 331/3/4
f 325/3/4 326/3/4 331/3/4
f 327/4/4 328/4/4 332/4/4
f 329/7/4 330/7/4 333/7/4
f 332/4/4 328/4/4 333/4/4
f 328/7/4 329/7/4 333/7/4
f 333/7/4 330/7/4 334/7/4
f 330/5/4 331/5/4 335/5/4
f 334/7/4 330/7/4 335/7/4
f 331/3/4 326/3/4 336/3/4
f 335/5/4 331/5/4 336/5/4
f 334/5/4 335/5/4 337/5/4
f 337/5/4 335/5/4 338/5/4
f 336/3/4 326/3/4 339/3/4
f 339/3/4 326/3/4 340/3/4
f 340/3/4 326/3/4 341/3/4
f 341/3/4 326/3/4 342/3/4
f 340/3/4 341/3/4 343/3/4
f 343/3/4 341/3/4 344/3/4
f 347/8/5 346/8/5 345/8/5
f 348/8/5 346/8/5 347/8/5
f 351/8/5 350/8/5 349/8/5
f 352/8/5 350/8/5 351/8/5
f 356/4/5 354/4/5 353/4/5
f 357/4/5 354/4/5 356/4/5
f 359/7/5 356/7/5 355/7/5
f 360/7/5 358/7/5 357/7/5
f 361/7/5 359/7/5 355/7/5
f 361/6/5 360/6/5 359/6/5
f 362/7/5 358/7/5 360/7/5
f 362/6/5 360/6/5 361/6/5
f 363/7/5 361/7/5 355/7/5
f 364/7/5 361/7/5 363/7/5
f 365/7/5 358/7/5 362/7/5
f 366/7/5 358/7/5 365/7/5
f 367/4/5 365/4/5 364/4/5
f 368/4/5 365/4/5 367/4/5
f 371/5/5 370/5/5 369/5/5
f 372/5/5 370/5/5 371/5/5
f 375/5/5 374/5/5 373/5/5
f 376/5/5 374/5/5 375/5/5
f 382/5/5 378/5/5 377/5/5
f 383/5/5 378/5/5 382/5/5
f 384/5/5 380/5/5 379/5/5
f 385/5/5 380/5/5 384/5/5
f 388/5/5 387/5/5 386/5/5
f 389/5/5 387/5/5 388/5/5
f 390/5/5 382/5/5 381/5/5
f 391/5/5 382/5/5 390/5/5
f 395/5/5 392/5/5 391/5/5
f 396/5/5 392/5/5 395/5/5
f 397/5/5 394/5/5 393/5/5
f 398/5/5 394/5/5 397/5/5
f 403/3/5 400/3/5 399/3/5
f 404/3/5 400/3/5 403/3/5
f 405/3/5 402/3/5 401/3/5
f 406/3/5 402/3/5 405/3/5
f 411/3/5 407/3/5 406/3/5
f 412/3/5 407/3/5 411/3/5
f 413/3/5 409/3/5 408/3/5
f 414/3/5 409/3/5 413/3/5
f 415/3/5 411/3/5 410/3/5
f 416/3/5 411/3/5 415/3/5
f 421/3/5 418/3/5 417/3/5
f 422/3/5 418/3/5 421/3/5
f 423/3/5 420/3/5 419/3/5
f 424/3/5 420/3/5 423/3/5
f 427/3/5 426/3/5 425/3/5
f 428/3/5 426/3/5 427/3/5
f 433/3/5 430/3/5 429/3/5
f 434/3/5 430/3/5 433/3/5
f 435/3/5 432/3/5 431/3/5
f 436/3/5 432/3/5 435/3/5
f 439/3/5 438/3/5 437/3/5
f 440/3/5 438/3/5 439/3/5
f 443/3/5 442/3/5 441/3/5
f 444/3/5 442/3/5 443/3/5
f 445/8/6 446/8/6 447/8/6
f 447/8/6 446/8/6 448/8/6
f 449/8/6 450/8/6 451/8/6
f 451/8/6 450/8/6 452/8/6
f 453/5/6 454/5/6 458/5/6
f 458/5/6 454/5/6 459/5/6
f 455/5/6 456/5/6 460/5/6
f 460/5/6 456/5/6 461/5/6
f 457/5/6 458/5/6 463/5/6
f 457/5/6 463/5/6 464/5/6
f 457/5/6 464/5/6 465/5/6
f 465/5/6 464/5/6 466/5/6
f 461/5/6 462/5/6 469/5/6
f 469/5/6 462/5/6 470/5/6
f 466/5/6 467/5/6 471/5/6
f 471/5/6 467/5/6 472/5/6
f 468/5/6 469/5/6 473/5/6
f 473/5/6 469/5/6 474/5/6
f 475/3/6 476/3/6 479/3/6
f 479/3/6 476/3/6 480/3/6
f 477/3/6 478/3/6 481/3/6
f 481/3/6 478/3/6 482/3/6
f 483/3/6 484/3/6 487/3/6
f 487/3/6 484/3/6 488/3/6
f 485/3/6 486/3/6 489/3/6
f 489/3/6 486/3/6 490/3/6
f 491/3/6 492/3/6 494/3/6
f 494/3/6 492/3/6 495/3/6
f 493/3/6 494/3/6 497/3/6
f 497/3/6 494/3/6 498/3/6
f 495/3/6 496/3/6 499/3/6
f 499/3/6 496/3/6 500/3/6
f 498/3/6 499/3/6 501/3/6
f 501/3/6 499/3/6 502/3/6
f 503/3/6 504/3/6 505/3/6
f 505/3/6 504/3/6 506/3/6
